<?xml version="1.0" encoding="UTF-8"?>
<svg version="1.1" xmlns="http://www.w3.org/2000/svg" width="168" height="300">
<path d="M0 0 C55.44 0 110.88 0 168 0 C168 99 168 198 168 300 C112.56 300 57.12 300 0 300 C0 201 0 102 0 0 Z " fill="#33A5FE" transform="translate(0,0)"/>
<path d="M0 0 C0.825 0.53625 1.65 1.0725 2.5 1.625 C4.58334635 2.8766467 4.58334635 2.8766467 6.5 3.625 C7.49 3.295 8.48 2.965 9.5 2.625 C11.4375 2.4921875 11.4375 2.4921875 13.5 2.5 C14.180625 2.49742187 14.86125 2.49484375 15.5625 2.4921875 C17.5 2.625 17.5 2.625 20.5 3.625 C20.5 46.855 20.5 90.085 20.5 134.625 C-34.94 134.625 -90.38 134.625 -147.5 134.625 C-147.5 91.725 -147.5 48.825 -147.5 4.625 C-144.53 3.965 -141.56 3.305 -138.5 2.625 C-137.84 2.295 -137.18 1.965 -136.5 1.625 C-129.76406981 0.77252751 -125.24942214 2.25167737 -119.5 5.625 C-118.17088286 6.30003322 -116.83860987 6.96899251 -115.5 7.625 C-115.0875 7.17125 -114.675 6.7175 -114.25 6.25 C-110.19224591 2.48208549 -106.38280045 2.21036323 -101.03125 2.2890625 C-97.1718965 2.80126065 -94.77767698 4.56841836 -91.5 6.625 C-88.87014192 7.29340854 -88.87014192 7.29340854 -86.5 6.625 C-85.1256709 5.33396357 -83.79103643 3.9993291 -82.5 2.625 C-76.94169925 0.78395946 -71.29869981 1.01527125 -65.8125 2.875 C-62.5149037 4.61712635 -59.54062847 6.47431157 -56.5 8.625 C-56.29375 8.0475 -56.0875 7.47 -55.875 6.875 C-53.48035626 2.95649206 -49.77248678 1.04916226 -45.5 -0.375 C-39.04551003 -0.96177182 -34.24619251 -0.37301348 -28.5 2.625 C-28.5 3.285 -28.5 3.945 -28.5 4.625 C-26.13284044 4.21686904 -24.81227115 3.95146529 -23.125 2.1875 C-17.51620148 -3.2055755 -6.770118 -2.65968921 0 0 Z " fill="#29B83D" transform="translate(147.5,165.375)"/>
<path d="M0 0 C0.99 1.0209375 0.99 1.0209375 2 2.0625 C4.70251135 4.68055787 7.1913885 4.83779137 10.8203125 5.4921875 C13.57137096 6.1331151 15.59530511 7.55718307 18 9 C21.49553946 8.78152878 24.08789206 6.83922607 27 5 C31.814598 2.592701 39.24738851 3.34461631 44.37890625 4.56640625 C46.25 5.3125 46.25 5.3125 49 7 C49.33 7.99 49.66 8.98 50 10 C50.66 9.67 51.32 9.34 52 9 C56.74150731 7.41949756 61.20863728 7.40287909 66 9 C66 23.19 66 37.38 66 52 C62.37 52 58.74 52 55 52 C52.525 52.495 52.525 52.495 50 53 C48.5 51.6875 48.5 51.6875 47 50 C41.09416727 47.11961141 34.14697927 46.92267087 27.8046875 48.5703125 C24.53953713 49.91312326 21.69665842 51.73480693 19 54 C18.34 53.67 17.68 53.34 17 53 C17 52.34 17 51.68 17 51 C9.84415197 48.51100938 2.6338744 47.4482921 -4.4375 50.75 C-7.34998056 52.39746375 -9.30996028 54.04243049 -11 57 C-13.64525803 56.04476793 -15.81123085 55.14300693 -18.0625 53.4375 C-22.39324799 50.2243644 -27.82894214 50.64089876 -33 51 C-37.2400631 52.00397502 -37.2400631 52.00397502 -40.5625 54.625 C-42 56 -42 56 -44.3125 56.4375 C-47 56 -47 56 -49.6875 54 C-54.16759286 51.29503828 -57.8791386 51.13262283 -63 52 C-66.32808239 53.88413915 -66.32808239 53.88413915 -69 56 C-73.76614951 56 -75.18600284 54.6779129 -79 52 C-84.92388753 50.02537082 -90.32759528 50.54706823 -96 53 C-97.98 53 -99.96 53 -102 53 C-102 38.48 -102 23.96 -102 9 C-82.43828715 5.44332494 -82.43828715 5.44332494 -74 10 C-71.5625 11.6875 -71.5625 11.6875 -70 13 C-69.21625 12.360625 -68.4325 11.72125 -67.625 11.0625 C-63.0946202 7.50291587 -59.66420577 7.61919662 -54 7.6328125 C-49.58085367 8.1736976 -47.92620038 9.74866625 -45 13 C-42.7541421 11.95728026 -40.89021957 10.91350633 -38.9375 9.375 C-37 8 -37 8 -34 8 C-33.9071875 6.88625 -33.9071875 6.88625 -33.8125 5.75 C-32.72450132 2.06754292 -31.19731265 1.06049038 -28 -1 C-19.17494907 -4.47052565 -8.52534019 -4.4406717 0 0 Z " fill="#EEEFEE" transform="translate(102,117)"/>
<path d="M0 0 C1.32 0 2.64 0 4 0 C4 0.66 4 1.32 4 2 C4.66 2 5.32 2 6 2 C6 3.98 6 5.96 6 8 C7.32 8 8.64 8 10 8 C10 10.97 10 13.94 10 17 C11.98 17 13.96 17 16 17 C16.10832169 19.08218362 16.18573541 21.16599129 16.25 23.25 C16.29640625 24.41015625 16.3428125 25.5703125 16.390625 26.765625 C16 30 16 30 14.1328125 32.390625 C12 34 12 34 9.625 34.5 C7 34 7 34 4.3125 32 C-0.16759286 29.29503828 -3.8791386 29.13262283 -9 30 C-12.32808239 31.88413915 -12.32808239 31.88413915 -15 34 C-19.76614951 34 -21.18600284 32.6779129 -25 30 C-27.81227622 29.06257459 -29.58746844 28.86529156 -32.5 28.875 C-33.2734375 28.87242187 -34.046875 28.86984375 -34.84375 28.8671875 C-37.18447017 28.91854187 -37.18447017 28.91854187 -40 30 C-40 21.42 -40 12.84 -40 4 C-33.73 4 -27.46 4 -21 4 C-21 5.32 -21 6.64 -21 8 C-19.68 8 -18.36 8 -17 8 C-17 8.66 -17 9.32 -17 10 C-16.34 10 -15.68 10 -15 10 C-15 11.65 -15 13.3 -15 15 C-13.02 15 -11.04 15 -9 15 C-9 19.29 -9 23.58 -9 28 C-8.34 28 -7.68 28 -7 28 C-7 25.69 -7 23.38 -7 21 C-6.34 21 -5.68 21 -5 21 C-5 16.71 -5 12.42 -5 8 C-3.68 8 -2.36 8 -1 8 C-1.020625 6.865625 -1.04125 5.73125 -1.0625 4.5625 C-1 1 -1 1 0 0 Z " fill="#D0EBF0" transform="translate(48,139)"/>
<path d="M0 0 C7.92 0 15.84 0 24 0 C24 11.22 24 22.44 24 34 C21.66629467 32.83314734 19.34560546 31.63799451 17.0625 30.375 C11.66251284 28.30537496 11.66251284 28.30537496 0 29 C0 19.43 0 9.86 0 0 Z " fill="#B8E8F4" transform="translate(65,139)"/>
<path d="M0 0 C6.27 0 12.54 0 19 0 C19 9.24 19 18.48 19 28 C15.7 28.66 12.4 29.32 9 30 C8.01 29.01 7.02 28.02 6 27 C2.24092481 25.11726047 -1.14096446 24.6500463 -5.3125 24.375 C-7.189375 24.25125 -9.06625 24.1275 -11 24 C-11 19.71 -11 15.42 -11 11 C-9.35 11 -7.7 11 -6 11 C-6 9.35 -6 7.7 -6 6 C-5.34 6 -4.68 6 -4 6 C-4 5.34 -4 4.68 -4 4 C-2.68 4 -1.36 4 0 4 C0 2.68 0 1.36 0 0 Z " fill="#D1EBF0" transform="translate(143,140)"/>
<path d="M0 0 C6.93 0 13.86 0 21 0 C21 8.58 21 17.16 21 26 C18.97875 26.2475 16.9575 26.495 14.875 26.75 C9.45764482 27.56938234 6.16943951 28.50668582 2 32 C1.01 32.495 1.01 32.495 0 33 C0 22.11 0 11.22 0 0 Z " fill="#B7E8F5" transform="translate(91,139)"/>
<path d="M0 0 C1.32 0 2.64 0 4 0 C4 0.66 4 1.32 4 2 C4.66 2 5.32 2 6 2 C6 3.98 6 5.96 6 8 C7.32 8 8.64 8 10 8 C10 10.97 10 13.94 10 17 C11.98 17 13.96 17 16 17 C16.10832169 19.08218362 16.18573541 21.16599129 16.25 23.25 C16.29640625 24.41015625 16.3428125 25.5703125 16.390625 26.765625 C16 30 16 30 14.1328125 32.390625 C12 34 12 34 9.625 34.5 C7 34 7 34 4.375 32 C-0.54341604 29.08538309 -4.3382292 29.72381606 -10 30 C-10 25.05 -10 20.1 -10 15 C-9.67 15 -9.34 15 -9 15 C-9 19.29 -9 23.58 -9 28 C-8.34 28 -7.68 28 -7 28 C-7 25.69 -7 23.38 -7 21 C-6.34 21 -5.68 21 -5 21 C-5 16.71 -5 12.42 -5 8 C-3.68 8 -2.36 8 -1 8 C-1.020625 6.865625 -1.04125 5.73125 -1.0625 4.5625 C-1 1 -1 1 0 0 Z " fill="#D1EBF0" transform="translate(48,139)"/>
<path d="M0 0 C0.9590625 -0.00773438 1.918125 -0.01546875 2.90625 -0.0234375 C5.5 0.375 5.5 0.375 7.30859375 1.74609375 C8.5 3.375 8.5 3.375 9.0625 5.8125 C8.5 8.375 8.5 8.375 5.6875 10.5625 C4.1096875 11.4596875 4.1096875 11.4596875 2.5 12.375 C1.51 13.035 0.52 13.695 -0.5 14.375 C-1.16 14.045 -1.82 13.715 -2.5 13.375 C-2.5 12.715 -2.5 12.055 -2.5 11.375 C-4.48 10.715 -6.46 10.055 -8.5 9.375 C-8.86507937 3.89880952 -8.86507937 3.89880952 -7.33203125 1.69921875 C-4.82308014 -0.11428749 -3.07024471 -0.02476004 0 0 Z " fill="#A8E5F6" transform="translate(121.5,156.625)"/>
<path d="M0 0 C3.3 0 6.6 0 10 0 C10.76681614 12.59282511 10.76681614 12.59282511 8.88671875 16.04296875 C7.5 17.375 7.5 17.375 5 19 C1.125 17.125 1.125 17.125 0 16 C-0.07319621 13.30345146 -0.09242537 10.63308542 -0.0625 7.9375 C-0.05798828 7.17888672 -0.05347656 6.42027344 -0.04882812 5.63867188 C-0.0370068 3.75908129 -0.01907078 1.87953101 0 0 Z " fill="#D9ECEE" transform="translate(27,155)"/>
<path d="M0 0 C1.32 0 2.64 0 4 0 C4 0.66 4 1.32 4 2 C4.66 2 5.32 2 6 2 C6 3.98 6 5.96 6 8 C7.32 8 8.64 8 10 8 C10 10.97 10 13.94 10 17 C11.98 17 13.96 17 16 17 C16 21.29 16 25.58 16 30 C15.67 30 15.34 30 15 30 C15 26.04 15 22.08 15 18 C13.35 18 11.7 18 10 18 C10 19.32 10 20.64 10 22 C9.34 22 8.68 22 8 22 C8 18.04 8 14.08 8 10 C3.68380697 9.09661076 1.49202386 9.10159523 -3 10 C-3 13.63 -3 17.26 -3 21 C-3.66 21 -4.32 21 -5 21 C-5 16.71 -5 12.42 -5 8 C-3.68 8 -2.36 8 -1 8 C-1.020625 6.865625 -1.04125 5.73125 -1.0625 4.5625 C-1 1 -1 1 0 0 Z " fill="#A5E5F8" transform="translate(48,139)"/>
<path d="M0 0 C3.3 0 6.6 0 10 0 C10 3.63 10 7.26 10 11 C6.7 11 3.4 11 0 11 C0 7.37 0 3.74 0 0 Z " fill="#E0EDF1" transform="translate(133,153)"/>
<path d="M0 0 C1.65 0 3.3 0 5 0 C5.0810206 2.10353495 5.13919907 4.20795952 5.1875 6.3125 C5.22230469 7.48425781 5.25710937 8.65601563 5.29296875 9.86328125 C5 13 5 13 3.65625 14.90625 C1.38602488 16.40545527 -0.34068352 16.21562026 -3 16 C-3.33 15.34 -3.66 14.68 -4 14 C-3.34 13.34 -2.68 12.68 -2 12 C-2 12.66 -2 13.32 -2 14 C-1.34 14 -0.68 14 0 14 C0 9.38 0 4.76 0 0 Z " fill="#D0EAED" transform="translate(58,157)"/>
<path d="M0 0 C0.66 0 1.32 0 2 0 C2 1.65 2 3.3 2 5 C3.98 5 5.96 5 8 5 C8 9.62 8 14.24 8 19 C7.34 18.67 6.68 18.34 6 18 C6 14.37 6 10.74 6 7 C2.7 7 -0.6 7 -4 7 C-4 10.63 -4 14.26 -4 18 C-4.33 18 -4.66 18 -5 18 C-5 13.71 -5 9.42 -5 5 C-3.35 5 -1.7 5 0 5 C0 3.35 0 1.7 0 0 Z " fill="#70DEFD" transform="translate(137,146)"/>
<path d="M0 0 C5.61 0 11.22 0 17 0 C17 0.99 17 1.98 17 3 C11.72 3 6.44 3 1 3 C1 3.66 1 4.32 1 5 C3.97 5 6.94 5 10 5 C6.74147635 7.1723491 3.40755272 9.07119658 0 11 C0 7.37 0 3.74 0 0 Z " fill="#AEE6F4" transform="translate(92,160)"/>
<path d="M0 0 C6.27 0 12.54 0 19 0 C19 1.32 19 2.64 19 4 C20.32 4 21.64 4 23 4 C23 4.66 23 5.32 23 6 C21.02 6 19.04 6 17 6 C17 4.35 17 2.7 17 1 C11.72 1 6.44 1 1 1 C1 9.25 1 17.5 1 26 C0.67 26 0.34 26 0 26 C0 17.42 0 8.84 0 0 Z " fill="#59DBFE" transform="translate(8,143)"/>
<path d="M0 0 C0.33 0 0.66 0 1 0 C1 1.98 1 3.96 1 6 C2.32 6 3.64 6 5 6 C5 8.97 5 11.94 5 15 C6.98 15 8.96 15 11 15 C11 19.29 11 23.58 11 28 C10.67 28 10.34 28 10 28 C10 24.04 10 20.08 10 16 C8.35 16 6.7 16 5 16 C5 17.32 5 18.64 5 20 C4.34 20 3.68 20 3 20 C3 16.04 3 12.08 3 8 C2.01 8 1.02 8 0 8 C0 5.36 0 2.72 0 0 Z " fill="#63DDFE" transform="translate(53,141)"/>
<path d="M0 0 C0.33 0 0.66 0 1 0 C1 10.23 1 20.46 1 31 C-0.65 30.01 -2.3 29.02 -4 28 C-5.32608822 27.31903578 -6.65686601 26.64669414 -8 26 C-4.535 25.505 -4.535 25.505 -1 25 C-0.67 16.75 -0.34 8.5 0 0 Z " fill="#DFEDF0" transform="translate(86,141)"/>
<path d="M0 0 C0.33 0 0.66 0 1 0 C1 2.64 1 5.28 1 8 C0.01 8 -0.98 8 -2 8 C-2 11.63 -2 15.26 -2 19 C-2.66 19 -3.32 19 -4 19 C-4 14.71 -4 10.42 -4 6 C-2.68 6 -1.36 6 0 6 C0 4.02 0 2.04 0 0 Z " fill="#69DDFD" transform="translate(47,141)"/>
<path d="M0 0 C0.33 0 0.66 0 1 0 C1 3.96 1 7.92 1 12 C1.66 12 2.32 12 3 12 C3 15.3 3 18.6 3 22 C2.34 22 1.68 22 1 22 C0.05862745 19.17588235 -0.11725382 17.47081968 -0.09765625 14.55078125 C-0.09443359 13.70322266 -0.09121094 12.85566406 -0.08789062 11.98242188 C-0.07951172 11.10134766 -0.07113281 10.22027344 -0.0625 9.3125 C-0.05798828 8.41982422 -0.05347656 7.52714844 -0.04882812 6.60742188 C-0.03704983 4.40488013 -0.02060164 2.20247401 0 0 Z " fill="#F1EFEE" transform="translate(55,149)"/>
<path d="M0 0 C2.31 0 4.62 0 7 0 C7 1.32 7 2.64 7 4 C4.74339496 5.60337726 2.46835565 6.76582217 0 8 C0 5.36 0 2.72 0 0 Z " fill="#EDEEEC" transform="translate(122,162)"/>
<path d="M0 0 C0.33 0.99 0.66 1.98 1 3 C1.66 3 2.32 3 3 3 C3.33 2.01 3.66 1.02 4 0 C4 0.99 4 1.98 4 3 C4.66 3 5.32 3 6 3 C5.625 5.4375 5.625 5.4375 5 8 C4.01 8.495 4.01 8.495 3 9 C3 7.68 3 6.36 3 5 C2.34 5 1.68 5 1 5 C0.67 5.99 0.34 6.98 0 8 C-0.79953138 4.71303767 -1.09658936 3.28976808 0 0 Z " fill="#F2EFEB" transform="translate(30,163)"/>
<path d="M0 0 C0.66 0 1.32 0 2 0 C2 3.63 2 7.26 2 11 C0.35 11.33 -1.3 11.66 -3 12 C-3.33 11.34 -3.66 10.68 -4 10 C-3.34 9.34 -2.68 8.68 -2 8 C-2 8.66 -2 9.32 -2 10 C-1.34 10 -0.68 10 0 10 C0 6.7 0 3.4 0 0 Z " fill="#7DDDED" transform="translate(58,161)"/>
<path d="M0 0 C3.3 0 6.6 0 10 0 C10 4.62 10 9.24 10 14 C9.67 13.01 9.34 12.02 9 11 C8.34 11 7.68 11 7 11 C7 10.01 7 9.02 7 8 C7.66 8 8.32 8 9 8 C9 5.69 9 3.38 9 1 C6.03 1 3.06 1 0 1 C0 0.67 0 0.34 0 0 Z " fill="#A9E5F8" transform="translate(27,155)"/>
<path d="M0 0 C1.65 0 3.3 0 5 0 C5 0.99 5 1.98 5 3 C4.01 3.495 4.01 3.495 3 4 C3.66 4.33 4.32 4.66 5 5 C4.67 5.66 4.34 6.32 4 7 C2.35 6.01 0.7 5.02 -1 4 C-0.67 2.68 -0.34 1.36 0 0 Z " fill="#EDEFEC" transform="translate(115,162)"/>
<path d="M0 0 C0.33 0 0.66 0 1 0 C1.33 2.64 1.66 5.28 2 8 C1.2575 7.54625 0.515 7.0925 -0.25 6.625 C-2.46930578 5.31359204 -4.67967822 4.11719197 -7 3 C-3.535 2.505 -3.535 2.505 0 2 C0 1.34 0 0.68 0 0 Z " fill="#E2EAE0" transform="translate(85,164)"/>
<path d="M0 0 C0.33 0.66 0.66 1.32 1 2 C1.66 2 2.32 2 3 2 C3 2.66 3 3.32 3 4 C2.34 4 1.68 4 1 4 C1 4.99 1 5.98 1 7 C1.66 7 2.32 7 3 7 C3 7.99 3 8.98 3 10 C2.01 10.33 1.02 10.66 0 11 C0 7.37 0 3.74 0 0 Z " fill="#BAE8F6" transform="translate(133,153)"/>
<path d="M0 0 C0.33 1.32 0.66 2.64 1 4 C2.32 4 3.64 4 5 4 C5 4.66 5 5.32 5 6 C3.02 6 1.04 6 -1 6 C-1.042721 4.33388095 -1.04063832 2.66617115 -1 1 C-0.67 0.67 -0.34 0.34 0 0 Z " fill="#6FDEFD" transform="translate(26,143)"/>
</svg>
