<?xml version="1.0" encoding="UTF-8"?>
<svg version="1.1" xmlns="http://www.w3.org/2000/svg" width="168" height="168">
<path d="M0 0 C1.60279192 0.00015914 3.20558896 0.00585476 4.80834961 0.01586914 C5.65038437 0.01728409 6.49241913 0.01869904 7.35997009 0.02015686 C10.06024671 0.02577276 12.76044163 0.03832791 15.46069336 0.05102539 C17.28686404 0.05603834 19.11303602 0.06060161 20.93920898 0.06469727 C25.42556878 0.07574735 29.9118672 0.0930226 34.39819336 0.11352539 C35.38819336 3.08352539 35.38819336 3.08352539 36.39819336 6.11352539 C38.04819336 6.44352539 39.69819336 6.77352539 41.39819336 7.11352539 C41.89319336 9.58852539 41.89319336 9.58852539 42.39819336 12.11352539 C44.04819336 12.44352539 45.69819336 12.77352539 47.39819336 13.11352539 C47.89319336 15.58852539 47.89319336 15.58852539 48.39819336 18.11352539 C50.37819336 18.77352539 52.35819336 19.43352539 54.39819336 20.11352539 C54.59304274 22.55064153 54.77934514 24.98789937 54.96069336 27.42602539 C55.04480469 28.46146484 55.04480469 28.46146484 55.13061523 29.51782227 C55.36400841 32.73864813 55.43043554 35.01679884 54.39819336 38.11352539 C56.04819336 38.11352539 57.69819336 38.11352539 59.39819336 38.11352539 C60.38819336 41.08352539 60.38819336 41.08352539 61.39819336 44.11352539 C63.04819336 44.44352539 64.69819336 44.77352539 66.39819336 45.11352539 C66.44073692 47.11307285 66.43900119 49.11394175 66.39819336 51.11352539 C65.39819336 52.11352539 65.39819336 52.11352539 62.83569336 52.17602539 C62.03131836 52.15540039 61.22694336 52.13477539 60.39819336 52.11352539 C60.58381836 52.97977539 60.76944336 53.84602539 60.96069336 54.73852539 C61.40487269 58.16505167 61.11773828 60.7556491 60.39819336 64.11352539 C58.41819336 64.44352539 56.43819336 64.77352539 54.39819336 65.11352539 C54.18163086 66.32008789 54.18163086 66.32008789 53.96069336 67.55102539 C53.39819336 70.11352539 53.39819336 70.11352539 52.39819336 71.11352539 C50.25260509 71.20128144 48.10414915 71.22047758 45.95678711 71.21118164 C44.65161133 71.20795898 43.34643555 71.20473633 42.00170898 71.20141602 C40.61303646 71.1930594 39.22436459 71.18459444 37.83569336 71.17602539 C36.4431168 71.17101205 35.05053854 71.16644886 33.65795898 71.16235352 C30.23799466 71.15051973 26.81811492 71.13403419 23.39819336 71.11352539 C22.73819336 73.09352539 22.07819336 75.07352539 21.39819336 77.11352539 C17.18076743 77.23717568 12.96430224 77.32788204 8.74560547 77.38818359 C7.31084822 77.41332063 5.87621895 77.44743647 4.44189453 77.49072266 C2.37882966 77.55142204 0.31745721 77.57973892 -1.74633789 77.60180664 C-3.60802612 77.64108276 -3.60802612 77.64108276 -5.50732422 77.68115234 C-8.60180664 77.11352539 -8.60180664 77.11352539 -10.37963867 74.63647461 C-10.7829541 73.80390137 -11.18626953 72.97132812 -11.60180664 72.11352539 C-14.00886299 71.16198149 -14.00886299 71.16198149 -16.66430664 70.92602539 C-21.42553545 70.28979658 -21.42553545 70.28979658 -23.60180664 68.11352539 C-23.60180664 67.12352539 -23.60180664 66.13352539 -23.60180664 65.11352539 C-25.25180664 64.78352539 -26.90180664 64.45352539 -28.60180664 64.11352539 C-29.894242 59.99388769 -30.86433289 56.44520856 -30.60180664 52.11352539 C-32.58180664 51.78352539 -34.56180664 51.45352539 -36.60180664 51.11352539 C-36.69461914 50.18540039 -36.69461914 50.18540039 -36.78930664 49.23852539 C-37.05743164 48.53727539 -37.32555664 47.83602539 -37.60180664 47.11352539 C-39.25180664 46.45352539 -40.90180664 45.79352539 -42.60180664 45.11352539 C-42.60180664 38.84352539 -42.60180664 32.57352539 -42.60180664 26.11352539 C-40.62180664 25.45352539 -38.64180664 24.79352539 -36.60180664 24.11352539 C-36.27180664 22.46352539 -35.94180664 20.81352539 -35.60180664 19.11352539 C-31.64180664 18.78352539 -27.68180664 18.45352539 -23.60180664 18.11352539 C-23.27180664 16.46352539 -22.94180664 14.81352539 -22.60180664 13.11352539 C-20.95180664 12.78352539 -19.30180664 12.45352539 -17.60180664 12.11352539 C-17.27180664 10.46352539 -16.94180664 8.81352539 -16.60180664 7.11352539 C-12.64180664 7.11352539 -8.68180664 7.11352539 -4.60180664 7.11352539 C-4.60180664 5.13352539 -4.60180664 3.15352539 -4.60180664 1.11352539 C-3.60180664 0.11352539 -3.60180664 0.11352539 0 0 Z " fill="#F8F128" transform="translate(71.601806640625,44.886474609375)"/>
<path d="M0 0 C1.60279192 0.00015914 3.20558896 0.00585476 4.80834961 0.01586914 C5.65038437 0.01728409 6.49241913 0.01869904 7.35997009 0.02015686 C10.06024671 0.02577276 12.76044163 0.03832791 15.46069336 0.05102539 C17.28686404 0.05603834 19.11303602 0.06060161 20.93920898 0.06469727 C25.42556878 0.07574735 29.9118672 0.0930226 34.39819336 0.11352539 C35.38819336 3.08352539 35.38819336 3.08352539 36.39819336 6.11352539 C38.04819336 6.44352539 39.69819336 6.77352539 41.39819336 7.11352539 C41.89319336 9.58852539 41.89319336 9.58852539 42.39819336 12.11352539 C44.04819336 12.44352539 45.69819336 12.77352539 47.39819336 13.11352539 C47.89319336 15.58852539 47.89319336 15.58852539 48.39819336 18.11352539 C50.37819336 18.77352539 52.35819336 19.43352539 54.39819336 20.11352539 C54.59304274 22.55064153 54.77934514 24.98789937 54.96069336 27.42602539 C55.04480469 28.46146484 55.04480469 28.46146484 55.13061523 29.51782227 C55.36400841 32.73864813 55.43043554 35.01679884 54.39819336 38.11352539 C56.04819336 38.11352539 57.69819336 38.11352539 59.39819336 38.11352539 C60.38819336 41.08352539 60.38819336 41.08352539 61.39819336 44.11352539 C63.04819336 44.44352539 64.69819336 44.77352539 66.39819336 45.11352539 C66.44073692 47.11307285 66.43900119 49.11394175 66.39819336 51.11352539 C65.39819336 52.11352539 65.39819336 52.11352539 62.83569336 52.17602539 C62.03131836 52.15540039 61.22694336 52.13477539 60.39819336 52.11352539 C60.58381836 52.97977539 60.76944336 53.84602539 60.96069336 54.73852539 C61.40487269 58.16505167 61.11773828 60.7556491 60.39819336 64.11352539 C58.41819336 64.44352539 56.43819336 64.77352539 54.39819336 65.11352539 C54.18163086 66.32008789 54.18163086 66.32008789 53.96069336 67.55102539 C53.39819336 70.11352539 53.39819336 70.11352539 52.39819336 71.11352539 C50.25260509 71.20128144 48.10414915 71.22047758 45.95678711 71.21118164 C44.65161133 71.20795898 43.34643555 71.20473633 42.00170898 71.20141602 C40.61303646 71.1930594 39.22436459 71.18459444 37.83569336 71.17602539 C36.4431168 71.17101205 35.05053854 71.16644886 33.65795898 71.16235352 C30.23799466 71.15051973 26.81811492 71.13403419 23.39819336 71.11352539 C22.73819336 73.09352539 22.07819336 75.07352539 21.39819336 77.11352539 C17.18076743 77.23717568 12.96430224 77.32788204 8.74560547 77.38818359 C7.31084822 77.41332063 5.87621895 77.44743647 4.44189453 77.49072266 C2.37882966 77.55142204 0.31745721 77.57973892 -1.74633789 77.60180664 C-3.60802612 77.64108276 -3.60802612 77.64108276 -5.50732422 77.68115234 C-8.60180664 77.11352539 -8.60180664 77.11352539 -10.37963867 74.63647461 C-10.7829541 73.80390137 -11.18626953 72.97132812 -11.60180664 72.11352539 C-14.00886299 71.16198149 -14.00886299 71.16198149 -16.66430664 70.92602539 C-21.42553545 70.28979658 -21.42553545 70.28979658 -23.60180664 68.11352539 C-23.60180664 67.12352539 -23.60180664 66.13352539 -23.60180664 65.11352539 C-25.25180664 64.78352539 -26.90180664 64.45352539 -28.60180664 64.11352539 C-29.894242 59.99388769 -30.86433289 56.44520856 -30.60180664 52.11352539 C-32.58180664 51.78352539 -34.56180664 51.45352539 -36.60180664 51.11352539 C-36.69461914 50.18540039 -36.69461914 50.18540039 -36.78930664 49.23852539 C-37.05743164 48.53727539 -37.32555664 47.83602539 -37.60180664 47.11352539 C-39.25180664 46.45352539 -40.90180664 45.79352539 -42.60180664 45.11352539 C-42.60180664 38.84352539 -42.60180664 32.57352539 -42.60180664 26.11352539 C-40.62180664 25.45352539 -38.64180664 24.79352539 -36.60180664 24.11352539 C-36.27180664 22.46352539 -35.94180664 20.81352539 -35.60180664 19.11352539 C-31.64180664 18.78352539 -27.68180664 18.45352539 -23.60180664 18.11352539 C-23.27180664 16.46352539 -22.94180664 14.81352539 -22.60180664 13.11352539 C-20.95180664 12.78352539 -19.30180664 12.45352539 -17.60180664 12.11352539 C-17.27180664 10.46352539 -16.94180664 8.81352539 -16.60180664 7.11352539 C-12.64180664 7.11352539 -8.68180664 7.11352539 -4.60180664 7.11352539 C-4.60180664 5.13352539 -4.60180664 3.15352539 -4.60180664 1.11352539 C-3.60180664 0.11352539 -3.60180664 0.11352539 0 0 Z M-3.60180664 7.11352539 C-3.60180664 9.09352539 -3.60180664 11.07352539 -3.60180664 13.11352539 C-4.45645508 13.10192383 -5.31110352 13.09032227 -6.19165039 13.07836914 C-7.29637695 13.0693457 -8.40110352 13.06032227 -9.53930664 13.05102539 C-11.1925293 13.03362305 -11.1925293 13.03362305 -12.87915039 13.01586914 C-15.51628298 12.80089968 -15.51628298 12.80089968 -16.60180664 14.11352539 C-16.64261447 16.11310903 -16.6443502 18.11397793 -16.60180664 20.11352539 C-14.62180664 20.11352539 -12.64180664 20.11352539 -10.60180664 20.11352539 C-10.60180664 22.09352539 -10.60180664 24.07352539 -10.60180664 26.11352539 C-18.85180664 26.11352539 -27.10180664 26.11352539 -35.60180664 26.11352539 C-35.60180664 32.38352539 -35.60180664 38.65352539 -35.60180664 45.11352539 C-33.29180664 45.11352539 -30.98180664 45.11352539 -28.60180664 45.11352539 C-28.60180664 47.09352539 -28.60180664 49.07352539 -28.60180664 51.11352539 C-22.66180664 51.11352539 -16.72180664 51.11352539 -10.60180664 51.11352539 C-10.60180664 49.13352539 -10.60180664 47.15352539 -10.60180664 45.11352539 C-8.29180664 45.11352539 -5.98180664 45.11352539 -3.60180664 45.11352539 C-3.60180664 47.42352539 -3.60180664 49.73352539 -3.60180664 52.11352539 C-5.58180664 52.11352539 -7.56180664 52.11352539 -9.60180664 52.11352539 C-9.60180664 54.09352539 -9.60180664 56.07352539 -9.60180664 58.11352539 C-13.89180664 58.11352539 -18.18180664 58.11352539 -22.60180664 58.11352539 C-22.60180664 60.09352539 -22.60180664 62.07352539 -22.60180664 64.11352539 C-18.31180664 64.11352539 -14.02180664 64.11352539 -9.60180664 64.11352539 C-9.60180664 66.09352539 -9.60180664 68.07352539 -9.60180664 70.11352539 C0.62819336 70.11352539 10.85819336 70.11352539 21.39819336 70.11352539 C21.72819336 68.46352539 22.05819336 66.81352539 22.39819336 65.11352539 C37.74319336 64.61852539 37.74319336 64.61852539 53.39819336 64.11352539 C53.39819336 62.13352539 53.39819336 60.15352539 53.39819336 58.11352539 C49.00163163 58.08887036 44.60510616 58.07068697 40.20849609 58.05859375 C38.71174418 58.05355418 37.2149972 58.04672252 35.71826172 58.03808594 C33.57119529 58.0260038 31.42419374 58.02029348 29.27709961 58.01586914 C27.98360596 58.01063232 26.6901123 58.00539551 25.35742188 58 C22.51166932 57.77355607 22.51166932 57.77355607 21.39819336 59.11352539 C21.35755504 60.77969654 21.35547236 62.44740634 21.39819336 64.11352539 C19.41819336 64.11352539 17.43819336 64.11352539 15.39819336 64.11352539 C15.39819336 62.13352539 15.39819336 60.15352539 15.39819336 58.11352539 C13.41819336 58.11352539 11.43819336 58.11352539 9.39819336 58.11352539 C9.39819336 55.80352539 9.39819336 53.49352539 9.39819336 51.11352539 C11.37819336 51.11352539 13.35819336 51.11352539 15.39819336 51.11352539 C15.39819336 49.13352539 15.39819336 47.15352539 15.39819336 45.11352539 C17.37819336 45.11352539 19.35819336 45.11352539 21.39819336 45.11352539 C21.39819336 47.09352539 21.39819336 49.07352539 21.39819336 51.11352539 C34.26819336 51.11352539 47.13819336 51.11352539 60.39819336 51.11352539 C60.39819336 49.46352539 60.39819336 47.81352539 60.39819336 46.11352539 C58.34129876 44.05663079 54.04263338 44.85605463 51.20678711 44.79711914 C50.38694839 44.77633804 49.56710968 44.75555695 48.72242737 44.73414612 C46.09360435 44.66856045 43.46467832 44.60972413 40.83569336 44.55102539 C39.05768775 44.50784872 37.27969271 44.46423472 35.50170898 44.42016602 C31.13397702 44.31286996 26.76614109 44.21162835 22.39819336 44.11352539 C22.06819336 42.46352539 21.73819336 40.81352539 21.39819336 39.11352539 C29.97819336 39.11352539 38.55819336 39.11352539 47.39819336 39.11352539 C47.39819336 32.84352539 47.39819336 26.57352539 47.39819336 20.11352539 C45.08819336 20.11352539 42.77819336 20.11352539 40.39819336 20.11352539 C40.39819336 24.07352539 40.39819336 28.03352539 40.39819336 32.11352539 C38.41819336 32.11352539 36.43819336 32.11352539 34.39819336 32.11352539 C34.39819336 27.82352539 34.39819336 23.53352539 34.39819336 19.11352539 C36.37819336 19.11352539 38.35819336 19.11352539 40.39819336 19.11352539 C40.39819336 17.46352539 40.39819336 15.81352539 40.39819336 14.11352539 C38.41819336 14.11352539 36.43819336 14.11352539 34.39819336 14.11352539 C34.39819336 11.80352539 34.39819336 9.49352539 34.39819336 7.11352539 C30.10819336 7.11352539 25.81819336 7.11352539 21.39819336 7.11352539 C21.39819336 9.09352539 21.39819336 11.07352539 21.39819336 13.11352539 C19.41819336 13.11352539 17.43819336 13.11352539 15.39819336 13.11352539 C15.39819336 11.13352539 15.39819336 9.15352539 15.39819336 7.11352539 C9.12819336 7.11352539 2.85819336 7.11352539 -3.60180664 7.11352539 Z " fill="#484A46" transform="translate(71.601806640625,44.886474609375)"/>
<path d="M0 0 C6.27 0 12.54 0 19 0 C19 1.98 19 3.96 19 6 C20.98 6 22.96 6 25 6 C25 4.02 25 2.04 25 0 C29.29 0 33.58 0 38 0 C38 2.31 38 4.62 38 7 C39.98 7 41.96 7 44 7 C44 8.65 44 10.3 44 12 C42.02 12 40.04 12 38 12 C38 16.29 38 20.58 38 25 C39.98 25 41.96 25 44 25 C44 21.04 44 17.08 44 13 C46.31 13 48.62 13 51 13 C51 19.27 51 25.54 51 32 C42.42 32 33.84 32 25 32 C25 29.69 25 27.38 25 25 C23.02 25 21.04 25 19 25 C19 19.06 19 13.12 19 7 C17.02 7 15.04 7 13 7 C13 12.94 13 18.88 13 25 C12.34 25 11.68 25 11 25 C11 19.06 11 13.12 11 7 C7.7 7.33 4.4 7.66 1 8 C0.34 9.65 -0.32 11.3 -1 13 C-2.65 13 -4.3 13 -6 13 C-6 17.29 -6 21.58 -6 26 C-4.02 26 -2.04 26 0 26 C0 29.96 0 33.92 0 38 C-2.31 38 -4.62 38 -7 38 C-7 39.98 -7 41.96 -7 44 C-12.94 44 -18.88 44 -25 44 C-25 42.02 -25 40.04 -25 38 C-27.31 38 -29.62 38 -32 38 C-32 31.73 -32 25.46 -32 19 C-23.75 19 -15.5 19 -7 19 C-7 17.02 -7 15.04 -7 13 C-8.98 13 -10.96 13 -13 13 C-13.04254356 11.00045254 -13.04080783 8.99958364 -13 7 C-12 6 -12 6 -9.27734375 5.90234375 C-7.62412109 5.91974609 -7.62412109 5.91974609 -5.9375 5.9375 C-4.83277344 5.94652344 -3.72804688 5.95554687 -2.58984375 5.96484375 C-1.73519531 5.97644531 -0.88054687 5.98804688 0 6 C0 4.02 0 2.04 0 0 Z " fill="#F3F4F1" transform="translate(68,52)"/>
<path d="M0 0 C1.98 0 3.96 0 6 0 C6 1.98 6 3.96 6 6 C18.87 6 31.74 6 45 6 C45 4.35 45 2.7 45 1 C46.98 1 48.96 1 51 1 C51.042721 2.66611905 51.04063832 4.33382885 51 6 C50 7 50 7 47.4375 7.0625 C46.2309375 7.0315625 46.2309375 7.0315625 45 7 C45.185625 7.86625 45.37125 8.7325 45.5625 9.625 C46.00667933 13.05152628 45.71954492 15.64212371 45 19 C43.02 19.33 41.04 19.66 39 20 C38.855625 20.804375 38.71125 21.60875 38.5625 22.4375 C38 25 38 25 37 26 C34.86581745 26.07551955 32.72916905 26.08308786 30.59375 26.0625 C28.64275391 26.05089844 28.64275391 26.05089844 26.65234375 26.0390625 C24.571765 26.0203496 22.49120713 25.99991369 20.41064453 25.97949219 C18.40921169 25.96149113 16.4077284 25.94940175 14.40625 25.9375 C12.60124023 25.92009766 12.60124023 25.92009766 10.75976562 25.90234375 C8.08989023 25.68289021 8.08989023 25.68289021 7 27 C4.63601532 27.1007812 2.30188689 27.13973215 -0.0625 27.1328125 C-0.76898682 27.13376923 -1.47547363 27.13472595 -2.20336914 27.13571167 C-3.69970793 27.13639333 -5.19604967 27.13454005 -6.69238281 27.13037109 C-8.99030157 27.12502257 -11.28802486 27.13031651 -13.5859375 27.13671875 C-15.03645877 27.13605797 -16.48697991 27.1347768 -17.9375 27.1328125 C-18.9749939 27.13584885 -18.9749939 27.13584885 -20.03344727 27.13894653 C-24.88504776 27.11495224 -24.88504776 27.11495224 -26 26 C-26 24.02 -26 22.04 -26 20 C-29.96 20 -33.92 20 -38 20 C-38 19.67 -38 19.34 -38 19 C-33.71 19 -29.42 19 -25 19 C-25 20.98 -25 22.96 -25 25 C-14.77 25 -4.54 25 6 25 C6 23.35 6 21.7 6 20 C7 19 7 19 9.95922852 18.88647461 C11.25272217 18.89171143 12.54621582 18.89694824 13.87890625 18.90234375 C14.90889992 18.90446617 14.90889992 18.90446617 15.95970154 18.90663147 C18.16067801 18.91224521 20.36155409 18.92479993 22.5625 18.9375 C24.05143083 18.94251324 25.54036324 18.94707645 27.02929688 18.95117188 C30.68623075 18.96221907 34.34310558 18.97949287 38 19 C38 17.02 38 15.04 38 13 C22.655 13.495 22.655 13.495 7 14 C6.67 15.65 6.34 17.3 6 19 C4.02 19 2.04 19 0 19 C0 17.02 0 15.04 0 13 C-1.98 13 -3.96 13 -6 13 C-6 10.69 -6 8.38 -6 6 C-4.02 6 -2.04 6 0 6 C0 4.02 0 2.04 0 0 Z " fill="#584B38" transform="translate(87,90)"/>
<path d="M0 0 C1.65 0 3.3 0 5 0 C5 0.33 5 0.66 5 1 C7.97 1.495 7.97 1.495 11 2 C11 4.31 11 6.62 11 9 C12.98 9 14.96 9 17 9 C17 10.98 17 12.96 17 15 C18.98 15 20.96 15 23 15 C22.979375 14.195625 22.95875 13.39125 22.9375 12.5625 C23 10 23 10 24 9 C26.29151417 8.91209025 28.58572524 8.89305962 30.87890625 8.90234375 C31.90889992 8.90446617 31.90889992 8.90446617 32.95970154 8.90663147 C35.16067801 8.91224521 37.36155409 8.92479993 39.5625 8.9375 C41.05143083 8.94251324 42.54036324 8.94707645 44.02929688 8.95117188 C47.68623075 8.96221907 51.34310558 8.97949287 55 9 C55 10.98 55 12.96 55 15 C39.655 15.495 39.655 15.495 24 16 C23.505 18.475 23.505 18.475 23 21 C12.77 21 2.54 21 -8 21 C-8 19.02 -8 17.04 -8 15 C-12.29 15 -16.58 15 -21 15 C-21 13.02 -21 11.04 -21 9 C-16.71 9 -12.42 9 -8 9 C-8 7.02 -8 5.04 -8 3 C-5.36 2.67 -2.72 2.34 0 2 C0 1.34 0 0.68 0 0 Z " fill="#F6BC19" transform="translate(70,94)"/>
<path d="M0 0 C8.25 0 16.5 0 25 0 C25.33 1.98 25.66 3.96 26 6 C28.97 6.495 28.97 6.495 32 7 C32 10.96 32 14.92 32 19 C29.69 19 27.38 19 25 19 C25 20.98 25 22.96 25 25 C19.06 25 13.12 25 7 25 C7 23.02 7 21.04 7 19 C4.69 19 2.38 19 0 19 C0 12.73 0 6.46 0 0 Z " fill="#FAFAE9" transform="translate(36,71)"/>
<path d="M0 0 C10.23 0 20.46 0 31 0 C31.66 1.98 32.32 3.96 33 6 C35.475 6.495 35.475 6.495 38 7 C38.495 9.475 38.495 9.475 39 12 C41.475 12.495 41.475 12.495 44 13 C44.495 15.475 44.495 15.475 45 18 C46.98 18.66 48.96 19.32 51 20 C51.19484938 22.43711614 51.38115178 24.87437398 51.5625 27.3125 C51.64661133 28.34793945 51.64661133 28.34793945 51.73242188 29.40429688 C51.96581505 32.62512274 52.03224218 34.90327345 51 38 C52.65 38 54.3 38 56 38 C56.66 39.98 57.32 41.96 58 44 C59.65 44.33 61.3 44.66 63 45 C63 45.33 63 45.66 63 46 C56.75188831 45.88269497 50.50396027 45.75785931 44.25610352 45.62768555 C42.12885993 45.58426577 40.0015799 45.54259607 37.87426758 45.50268555 C34.82361849 45.44515293 31.77315411 45.38141033 28.72265625 45.31640625 C27.76537125 45.29969376 26.80808624 45.28298126 25.8217926 45.26576233 C24.94095505 45.24581711 24.06011749 45.22587189 23.15258789 45.20532227 C22.37315323 45.18977798 21.59371857 45.1742337 20.79066467 45.15821838 C19 45 19 45 18 44 C18 42.35 18 40.7 18 39 C26.58 39 35.16 39 44 39 C44 32.73 44 26.46 44 20 C41.69 20 39.38 20 37 20 C37 23.96 37 27.92 37 32 C35.02 32 33.04 32 31 32 C31 27.71 31 23.42 31 19 C32.98 19 34.96 19 37 19 C37 17.35 37 15.7 37 14 C35.02 14 33.04 14 31 14 C31 11.69 31 9.38 31 7 C26.71 7 22.42 7 18 7 C18 6.67 18 6.34 18 6 C19.65 6 21.3 6 23 6 C22.34 4.35 21.68 2.7 21 1 C14.07 1 7.14 1 0 1 C0 0.67 0 0.34 0 0 Z " fill="#4B644A" transform="translate(75,45)"/>
<path d="M0 0 C5.61 0 11.22 0 17 0 C17 1.98 17 3.96 17 6 C13.04 6 9.08 6 5 6 C5 8.31 5 10.62 5 13 C8.96 13 12.92 13 17 13 C17.33 14.98 17.66 16.96 18 19 C33.84 19.495 33.84 19.495 50 20 C49.505 22.475 49.505 22.475 49 25 C44.78257407 25.12365029 40.56610889 25.21435665 36.34741211 25.2746582 C34.91265486 25.29979524 33.47802559 25.33391108 32.04370117 25.37719727 C29.9806363 25.43789665 27.91926385 25.46621353 25.85546875 25.48828125 C23.99378052 25.52755737 23.99378052 25.52755737 22.09448242 25.56762695 C19 25 19 25 17.22216797 22.52294922 C16.61719482 21.27408936 16.61719482 21.27408936 16 20 C13.59294365 19.0484561 13.59294365 19.0484561 10.9375 18.8125 C6.17627119 18.17627119 6.17627119 18.17627119 4 16 C4 15.01 4 14.02 4 13 C2.35 12.67 0.7 12.34 -1 12 C-1 9.36 -1 6.72 -1 4 C-0.01 3.67 0.98 3.34 2 3 C1.34 2.01 0.68 1.02 0 0 Z " fill="#444432" transform="translate(44,97)"/>
<path d="M0 0 C0.33 0.66 0.66 1.32 1 2 C-2.96 2 -6.92 2 -11 2 C-11.33 10.25 -11.66 18.5 -12 27 C-9.69 27 -7.38 27 -5 27 C-5 28.98 -5 30.96 -5 33 C0.94 33 6.88 33 13 33 C13 31.02 13 29.04 13 27 C15.31 27 17.62 27 20 27 C20 29.31 20 31.62 20 34 C18.02 34 16.04 34 14 34 C14 35.98 14 37.96 14 40 C13.67 40 13.34 40 13 40 C13 38.02 13 36.04 13 34 C8.05 34.33 3.1 34.66 -2 35 C-2 35.99 -2 36.98 -2 38 C-2.99 38.495 -2.99 38.495 -4 39 C-4.65772428 42.02934491 -4.65772428 42.02934491 -5 45 C-5.33 45 -5.66 45 -6 45 C-6.33 41.37 -6.66 37.74 -7 34 C-8.98 33.67 -10.96 33.34 -13 33 C-13.0928125 32.071875 -13.0928125 32.071875 -13.1875 31.125 C-13.5896875 30.073125 -13.5896875 30.073125 -14 29 C-16.475 28.01 -16.475 28.01 -19 27 C-19 20.73 -19 14.46 -19 8 C-17.02 7.34 -15.04 6.68 -13 6 C-12.67 4.35 -12.34 2.7 -12 1 C-6.06 0.505 -6.06 0.505 0 0 Z " fill="#425740" transform="translate(48,63)"/>
<path d="M0 0 C10.23 0 20.46 0 31 0 C31.66 1.98 32.32 3.96 33 6 C35.475 6.495 35.475 6.495 38 7 C38.495 9.475 38.495 9.475 39 12 C41.475 12.495 41.475 12.495 44 13 C44.495 15.475 44.495 15.475 45 18 C46.65 18.33 48.3 18.66 50 19 C50 19.33 50 19.66 50 20 C45.71 20 41.42 20 37 20 C37 23.96 37 27.92 37 32 C35.02 32 33.04 32 31 32 C31 27.71 31 23.42 31 19 C32.98 19 34.96 19 37 19 C37 17.35 37 15.7 37 14 C35.02 14 33.04 14 31 14 C31 11.69 31 9.38 31 7 C26.71 7 22.42 7 18 7 C18 6.67 18 6.34 18 6 C19.65 6 21.3 6 23 6 C22.34 4.35 21.68 2.7 21 1 C14.07 1 7.14 1 0 1 C0 0.67 0 0.34 0 0 Z " fill="#98A597" transform="translate(75,45)"/>
<path d="M0 0 C0.33 0 0.66 0 1 0 C1 3.96 1 7.92 1 12 C1.94875 11.814375 2.8975 11.62875 3.875 11.4375 C7 11 7 11 9 12 C8.67 13.98 8.34 15.96 8 18 C13.28 18 18.56 18 24 18 C24 15.69 24 13.38 24 11 C26.33294775 10.95758277 28.66702567 10.95907063 31 11 C32 12 32 12 32.0625 15.5625 C32.041875 16.696875 32.02125 17.83125 32 19 C29.69 19 27.38 19 25 19 C25 20.98 25 22.96 25 25 C19.06 25 13.12 25 7 25 C7 23.02 7 21.04 7 19 C4.69 19 2.38 19 0 19 C0 12.73 0 6.46 0 0 Z " fill="#F4F1B9" transform="translate(36,71)"/>
<path d="M0 0 C5.39363237 0.11793712 10.78706847 0.24216181 16.18041992 0.37231445 C18.01664247 0.4157282 19.85290708 0.45739839 21.68920898 0.49731445 C24.32288311 0.55486169 26.95634421 0.61859998 29.58984375 0.68359375 C30.82890724 0.70866249 30.82890724 0.70866249 32.09300232 0.73423767 C37.88612829 0.88612829 37.88612829 0.88612829 39 2 C39 3.65 39 5.3 39 7 C26.13 7 13.26 7 0 7 C0 4.69 0 2.38 0 0 Z " fill="#E66A52" transform="translate(93,89)"/>
<path d="M0 0 C1.98 0 3.96 0 6 0 C6 1.98 6 3.96 6 6 C18.54 6 31.08 6 44 6 C44 6.33 44 6.66 44 7 C31.79 7 19.58 7 7 7 C7 8.65 7 10.3 7 12 C17.23 12 27.46 12 38 12 C38 12.33 38 12.66 38 13 C22.655 13.495 22.655 13.495 7 14 C6.67 15.65 6.34 17.3 6 19 C4.02 19 2.04 19 0 19 C0 17.02 0 15.04 0 13 C-1.98 13 -3.96 13 -6 13 C-6 10.69 -6 8.38 -6 6 C-4.02 6 -2.04 6 0 6 C0 4.02 0 2.04 0 0 Z " fill="#8A4C44" transform="translate(87,90)"/>
<path d="M0 0 C3.3 0 6.6 0 10 0 C10 6.93 10 13.86 10 21 C9.01 20.01 8.02 19.02 7 18 C4.69011685 17.25613932 2.35684056 16.57809297 0 16 C0 14.68 0 13.36 0 12 C0.66 11.67 1.32 11.34 2 11 C-0.97 11 -3.94 11 -7 11 C-7 9.35 -7 7.7 -7 6 C-6.21625 5.938125 -5.4325 5.87625 -4.625 5.8125 C-3.75875 5.544375 -2.8925 5.27625 -2 5 C-0.62533375 2.52363988 -0.62533375 2.52363988 0 0 Z " fill="#F7F023" transform="translate(69,59)"/>
<path d="M0 0 C1.29349365 0.00523682 2.5869873 0.01047363 3.91967773 0.01586914 C4.9496714 0.01799156 4.9496714 0.01799156 6.00047302 0.02015686 C8.20144949 0.0257706 10.40232557 0.03832532 12.60327148 0.05102539 C14.09220231 0.05603863 15.58113473 0.06060184 17.07006836 0.06469727 C20.72700223 0.07574446 24.38387707 0.09301826 28.04077148 0.11352539 C28.04077148 2.09352539 28.04077148 4.07352539 28.04077148 6.11352539 C9.23077148 6.60852539 9.23077148 6.60852539 -9.95922852 7.11352539 C-9.95922852 6.78352539 -9.95922852 6.45352539 -9.95922852 6.11352539 C-7.97922852 6.11352539 -5.99922852 6.11352539 -3.95922852 6.11352539 C-3.97985352 5.30915039 -4.00047852 4.50477539 -4.02172852 3.67602539 C-3.93182307 -0.01009799 -3.72550473 0.14292218 0 0 Z " fill="#E66C53" transform="translate(96.959228515625,102.886474609375)"/>
<path d="M0 0 C1.98 0 3.96 0 6 0 C6 1.98 6 3.96 6 6 C7.98 6 9.96 6 12 6 C12 7.98 12 9.96 12 12 C4.08 12 -3.84 12 -12 12 C-12 10.02 -12 8.04 -12 6 C-8.04 6 -4.08 6 0 6 C0 4.02 0 2.04 0 0 Z " fill="#40433C" transform="translate(49,59)"/>
<path d="M0 0 C0.99 0 1.98 0 3 0 C3 1.32 3 2.64 3 4 C6.47517129 5.15839043 9.6727002 5.22801218 13.29296875 5.31640625 C13.99899734 5.33718735 14.70502594 5.35796844 15.43244934 5.37937927 C17.68403551 5.44467491 19.93573662 5.50366647 22.1875 5.5625 C23.7155066 5.60570425 25.24350164 5.64931916 26.77148438 5.69335938 C30.51420562 5.80033574 34.2570423 5.90165922 38 6 C37.67 7.65 37.34 9.3 37 11 C32.78257407 11.12365029 28.56610889 11.21435665 24.34741211 11.2746582 C22.91265486 11.29979524 21.47802559 11.33391108 20.04370117 11.37719727 C17.9806363 11.43789665 15.91926385 11.46621353 13.85546875 11.48828125 C11.99378052 11.52755737 11.99378052 11.52755737 10.09448242 11.56762695 C7 11 7 11 5.2590332 8.53198242 C4.84355225 7.69642822 4.42807129 6.86087402 4 6 C3.01 5.67 2.02 5.34 1 5 C0.67 3.35 0.34 1.7 0 0 Z " fill="#3F4441" transform="translate(56,111)"/>
<path d="M0 0 C-0.99 0.33 -1.98 0.66 -3 1 C-3 2.32 -3 3.64 -3 5 C-2.195625 5.144375 -1.39125 5.28875 -0.5625 5.4375 C2 6 2 6 3 7 C3.07258946 9.18639453 3.08373783 11.37500389 3.0625 13.5625 C3.05347656 14.76003906 3.04445313 15.95757812 3.03515625 17.19140625 C3.02355469 18.11824219 3.01195313 19.04507813 3 20 C0.69 20 -1.62 20 -4 20 C-4 16.04 -4 12.08 -4 8 C-5.98 8 -7.96 8 -10 8 C-10 5.36 -10 2.72 -10 0 C-6.30458414 -0.95024979 -3.69541586 -0.95024979 0 0 Z " fill="#D1CF48" transform="translate(72,70)"/>
<path d="M0 0 C1.98 0 3.96 0 6 0 C6 5.94 6 11.88 6 18 C7.98 18 9.96 18 12 18 C12 20.31 12 22.62 12 25 C10.02 25 8.04 25 6 25 C6 23.02 6 21.04 6 19 C4.02 19 2.04 19 0 19 C0 12.73 0 6.46 0 0 Z " fill="#413F2D" transform="translate(81,59)"/>
<path d="M0 0 C1.07507812 -0.00128906 2.15015625 -0.00257812 3.2578125 -0.00390625 C4.38960937 -0.00003906 5.52140625 0.00382812 6.6875 0.0078125 C7.81929687 0.00394531 8.95109375 0.00007813 10.1171875 -0.00390625 C11.19226563 -0.00261719 12.26734375 -0.00132813 13.375 0 C14.86580078 0.00169189 14.86580078 0.00169189 16.38671875 0.00341797 C18.6875 0.1328125 18.6875 0.1328125 19.6875 1.1328125 C19.77381874 2.47548663 19.79456473 3.82255572 19.78515625 5.16796875 C19.78193359 5.97685547 19.77871094 6.78574219 19.77539062 7.61914062 C19.76701172 8.46927734 19.75863281 9.31941406 19.75 10.1953125 C19.74548828 11.04931641 19.74097656 11.90332031 19.73632812 12.78320312 C19.72450373 14.89976913 19.70656769 17.01629935 19.6875 19.1328125 C19.0275 19.1328125 18.3675 19.1328125 17.6875 19.1328125 C17.6875 13.1928125 17.6875 7.2528125 17.6875 1.1328125 C14.3875 1.4628125 11.0875 1.7928125 7.6875 2.1328125 C7.0275 3.7828125 6.3675 5.4328125 5.6875 7.1328125 C4.0375 7.1328125 2.3875 7.1328125 0.6875 7.1328125 C0.6875 11.0928125 0.6875 15.0528125 0.6875 19.1328125 C0.3575 19.1328125 0.0275 19.1328125 -0.3125 19.1328125 C-0.3125 15.1728125 -0.3125 11.2128125 -0.3125 7.1328125 C-2.2925 7.1328125 -4.2725 7.1328125 -6.3125 7.1328125 C-6.35504356 5.13326504 -6.35330783 3.13239614 -6.3125 1.1328125 C-4.59682208 -0.58286542 -2.33877265 0.00265425 0 0 Z " fill="#D4D37E" transform="translate(61.3125,57.8671875)"/>
<path d="M0 0 C6.27 0 12.54 0 19 0 C19 1.98 19 3.96 19 6 C20.98 6 22.96 6 25 6 C25 6.33 25 6.66 25 7 C23.35 7 21.7 7 20 7 C20 12.94 20 18.88 20 25 C19.67 25 19.34 25 19 25 C19 19.06 19 13.12 19 7 C12.73 6.67 6.46 6.34 0 6 C0 4.02 0 2.04 0 0 Z " fill="#E8E9D8" transform="translate(68,52)"/>
<path d="M0 0 C0.9897583 0.02618408 1.9795166 0.05236816 2.99926758 0.0793457 C4.60898438 0.10351562 4.60898438 0.10351562 6.2512207 0.12817383 C7.37077148 0.17006836 8.49032227 0.21196289 9.64379883 0.25512695 C10.77495117 0.27768555 11.90610352 0.30024414 13.0715332 0.32348633 C15.86777859 0.38247885 18.66137979 0.46474456 21.45629883 0.56762695 C22.11629883 2.21762695 22.77629883 3.86762695 23.45629883 5.56762695 C21.80629883 5.56762695 20.15629883 5.56762695 18.45629883 5.56762695 C18.45629883 7.87762695 18.45629883 10.18762695 18.45629883 12.56762695 C16.47629883 12.56762695 14.49629883 12.56762695 12.45629883 12.56762695 C12.45629883 10.25762695 12.45629883 7.94762695 12.45629883 5.56762695 C11.46629883 5.23762695 10.47629883 4.90762695 9.45629883 4.56762695 C10.77629883 3.90762695 12.09629883 3.24762695 13.45629883 2.56762695 C13.78629883 3.22762695 14.11629883 3.88762695 14.45629883 4.56762695 C15.44629883 4.56762695 16.43629883 4.56762695 17.45629883 4.56762695 C17.12629883 3.90762695 16.79629883 3.24762695 16.45629883 2.56762695 C14.10030648 2.10010908 14.10030648 2.10010908 11.39379883 1.94262695 C10.47469727 1.86786133 9.5555957 1.7930957 8.60864258 1.71606445 C7.54323242 1.64258789 7.54323242 1.64258789 6.45629883 1.56762695 C6.78629883 2.55762695 7.11629883 3.54762695 7.45629883 4.56762695 C6.45629883 5.56762695 6.45629883 5.56762695 3.73364258 5.6652832 C2.08041992 5.64788086 2.08041992 5.64788086 0.39379883 5.63012695 C-0.71092773 5.62110352 -1.8156543 5.61208008 -2.95385742 5.6027832 C-4.23583008 5.58538086 -4.23583008 5.58538086 -5.54370117 5.56762695 C-3.28537258 0.73313094 -3.28537258 0.73313094 0 0 Z " fill="#3C403C" transform="translate(74.543701171875,45.432373046875)"/>
<path d="M0 0 C10.23 0 20.46 0 31 0 C31.66 1.98 32.32 3.96 33 6 C35.00136244 7.42055068 35.00136244 7.42055068 37 8 C37 9.65 37 11.3 37 13 C35.02 13 33.04 13 31 13 C31 11.02 31 9.04 31 7 C26.71 7 22.42 7 18 7 C18 6.67 18 6.34 18 6 C19.65 6 21.3 6 23 6 C22.34 4.35 21.68 2.7 21 1 C14.07 1 7.14 1 0 1 C0 0.67 0 0.34 0 0 Z " fill="#697B69" transform="translate(75,45)"/>
<path d="M0 0 C5.94 0 11.88 0 18 0 C18 1.98 18 3.96 18 6 C12.06 6 6.12 6 0 6 C0 4.02 0 2.04 0 0 Z " fill="#F5F03A" transform="translate(43,90)"/>
<path d="M0 0 C11.55 0 23.1 0 35 0 C34.67 0.66 34.34 1.32 34 2 C23.77 2 13.54 2 3 2 C3 2.66 3 3.32 3 4 C12.57 4 22.14 4 32 4 C31.67 4.66 31.34 5.32 31 6 C20.77 5.67 10.54 5.34 0 5 C0 3.35 0 1.7 0 0 Z " fill="#473B37" transform="translate(94,97)"/>
<path d="M0 0 C7.59 0 15.18 0 23 0 C22.01 0.66 21.02 1.32 20 2 C20.90363281 1.97679688 21.80726562 1.95359375 22.73828125 1.9296875 C23.91777344 1.91164063 25.09726563 1.89359375 26.3125 1.875 C28.07013672 1.84019531 28.07013672 1.84019531 29.86328125 1.8046875 C33 2 33 2 36 4 C24.12 4.33 12.24 4.66 0 5 C0 3.35 0 1.7 0 0 Z " fill="#403E3C" transform="translate(94,85)"/>
<path d="M0 0 C1.98 0 3.96 0 6 0 C6 2.31 6 4.62 6 7 C4.35 7.33 2.7 7.66 1 8 C1 11.3 1 14.6 1 18 C2.65 18 4.3 18 6 18 C6 18.33 6 18.66 6 19 C4.02 19 2.04 19 0 19 C0 17.02 0 15.04 0 13 C-1.98 13 -3.96 13 -6 13 C-6 10.69 -6 8.38 -6 6 C-4.02 6 -2.04 6 0 6 C0 4.02 0 2.04 0 0 Z " fill="#846328" transform="translate(87,90)"/>
<path d="M0 0 C1.65 0 3.3 0 5 0 C5 5.94 5 11.88 5 18 C4.01 18.33 3.02 18.66 2 19 C1.67 19.66 1.34 20.32 1 21 C0 20 0 20 -0.11352539 18.05053711 C-0.10567017 16.8015564 -0.10567017 16.8015564 -0.09765625 15.52734375 C-0.09443359 14.62822266 -0.09121094 13.72910156 -0.08789062 12.80273438 C-0.07951172 11.85720703 -0.07113281 10.91167969 -0.0625 9.9375 C-0.05798828 8.98810547 -0.05347656 8.03871094 -0.04882812 7.06054688 C-0.0370011 4.70696935 -0.02052025 2.35351523 0 0 Z " fill="#3E3F3E" transform="translate(119,66)"/>
<path d="M0 0 C0.33 0 0.66 0 1 0 C1 1.98 1 3.96 1 6 C6.94 6 12.88 6 19 6 C19 4.02 19 2.04 19 0 C21.31 0 23.62 0 26 0 C26 2.31 26 4.62 26 7 C24.02 7 22.04 7 20 7 C20 8.98 20 10.96 20 13 C19.67 13 19.34 13 19 13 C19 11.02 19 9.04 19 7 C12.73 7 6.46 7 0 7 C0 4.69 0 2.38 0 0 Z " fill="#9B9235" transform="translate(42,90)"/>
<path d="M0 0 C1.98 0 3.96 0 6 0 C6.042721 1.66611905 6.04063832 3.33382885 6 5 C5 6 5 6 2.4375 6.0625 C1.2309375 6.0315625 1.2309375 6.0315625 0 6 C0.185625 6.86625 0.37125 7.7325 0.5625 8.625 C1.00667933 12.05152628 0.71954492 14.64212371 0 18 C-1.65 18.33 -3.3 18.66 -5 19 C-5 18.34 -5 17.68 -5 17 C-4.01 17 -3.02 17 -2 17 C-2 15.35 -2 13.7 -2 12 C-2.99 12.33 -3.98 12.66 -5 13 C-4.40138258 10.64828869 -3.73075648 8.3140622 -3 6 C-2.34 5.67 -1.68 5.34 -1 5 C-0.34444881 2.47266765 -0.34444881 2.47266765 0 0 Z " fill="#435F42" transform="translate(132,91)"/>
<path d="M0 0 C0.33 0 0.66 0 1 0 C1 1.98 1 3.96 1 6 C2.98 6 4.96 6 7 6 C7 7.98 7 9.96 7 12 C5.02 12 3.04 12 1 12 C1 13.98 1 15.96 1 18 C-0.65 18 -2.3 18 -4 18 C-5.4606285 15.35261084 -6 14.10551666 -6 11 C-6.66 10.67 -7.32 10.34 -8 10 C-3.74433453 8.83936396 -0.3164922 9.23826608 4 10 C4.33 9.34 4.66 8.68 5 8 C3.35 8 1.7 8 0 8 C0 5.36 0 2.72 0 0 Z " fill="#F2EA2C" transform="translate(86,78)"/>
<path d="M0 0 C0.33 0.66 0.66 1.32 1 2 C-2.96 2 -6.92 2 -11 2 C-11 3.98 -11 5.96 -11 8 C-11.639375 8.28875 -12.27875 8.5775 -12.9375 8.875 C-15.15206079 9.82823451 -15.15206079 9.82823451 -16 12 C-16.23172827 14.54615009 -16.41894529 17.07396225 -16.5625 19.625 C-16.60568359 20.33140625 -16.64886719 21.0378125 -16.69335938 21.765625 C-16.79944751 23.51018537 -16.90022889 25.25506697 -17 27 C-17.66 27 -18.32 27 -19 27 C-19 20.73 -19 14.46 -19 8 C-17.02 7.34 -15.04 6.68 -13 6 C-12.67 4.35 -12.34 2.7 -12 1 C-6.06 0.505 -6.06 0.505 0 0 Z " fill="#618460" transform="translate(48,63)"/>
<path d="M0 0 C1.98 0 3.96 0 6 0 C6 3.96 6 7.92 6 12 C4.02 12 2.04 12 0 12 C0 8.04 0 4.08 0 0 Z " fill="#484431" transform="translate(68,78)"/>
<path d="M0 0 C1.98 0 3.96 0 6 0 C6 3.96 6 7.92 6 12 C4.02 12 2.04 12 0 12 C0 8.04 0 4.08 0 0 Z " fill="#484847" transform="translate(106,65)"/>
<path d="M0 0 C0.66 0 1.32 0 2 0 C2 5.94 2 11.88 2 18 C0.68 18 -0.64 18 -2 18 C-2.05397335 15.5622037 -2.09365616 13.12560315 -2.125 10.6875 C-2.14175781 9.99720703 -2.15851562 9.30691406 -2.17578125 8.59570312 C-2.21217794 4.82864604 -2.14378864 3.21568296 0 0 Z " fill="#3E413B" transform="translate(33,72)"/>
<path d="M0 0 C0.33 0 0.66 0 1 0 C1 5.94 1 11.88 1 18 C2.98 18 4.96 18 7 18 C7 20.31 7 22.62 7 25 C5.02 25 3.04 25 1 25 C1 23.02 1 21.04 1 19 C-0.98 19 -2.96 19 -5 19 C-5 18.67 -5 18.34 -5 18 C-3.35 18 -1.7 18 0 18 C0 12.06 0 6.12 0 0 Z " fill="#7B7A52" transform="translate(86,59)"/>
<path d="M0 0 C3.3 0 6.6 0 10 0 C10 0.33 10 0.66 10 1 C8.329375 1.2165625 8.329375 1.2165625 6.625 1.4375 C3.17857953 1.78372035 3.17857953 1.78372035 1 3 C0.27840576 4.64363134 -0.39351421 6.31050386 -1 8 C0.65 7.67 2.3 7.34 4 7 C3.34 8.32 2.68 9.64 2 11 C-0.97 11 -3.94 11 -7 11 C-7 9.35 -7 7.7 -7 6 C-6.21625 5.938125 -5.4325 5.87625 -4.625 5.8125 C-3.75875 5.544375 -2.8925 5.27625 -2 5 C-0.62533375 2.52363988 -0.62533375 2.52363988 0 0 Z " fill="#F4F22D" transform="translate(69,59)"/>
<path d="M0 0 C0.33 0.99 0.66 1.98 1 3 C1.99 3 2.98 3 4 3 C4 3.66 4 4.32 4 5 C2.04196493 5.05389087 0.08351091 5.09274217 -1.875 5.125 C-2.96554688 5.14820312 -4.05609375 5.17140625 -5.1796875 5.1953125 C-8 5 -8 5 -10 3 C-11.93257855 2.63168919 -11.93257855 2.63168919 -14.1328125 2.5859375 C-14.93847656 2.54726562 -15.74414062 2.50859375 -16.57421875 2.46875 C-17.41597656 2.4378125 -18.25773437 2.406875 -19.125 2.375 C-19.97449219 2.33632812 -20.82398437 2.29765625 -21.69921875 2.2578125 C-23.79911684 2.16343506 -25.89952891 2.08062414 -28 2 C-28.33 3.32 -28.66 4.64 -29 6 C-29 4.35 -29 2.7 -29 1 C-20 1 -11 1 -2 1 C-1.34 0.67 -0.68 0.34 0 0 Z " fill="#515149" transform="translate(122,83)"/>
<path d="M0 0 C3.63 0 7.26 0 11 0 C11 1.65 11 3.3 11 5 C7.37 5 3.74 5 0 5 C0 3.35 0 1.7 0 0 Z " fill="#3D483E" transform="translate(56,52)"/>
<path d="M0 0 C0.33 0 0.66 0 1 0 C1.495 2.475 1.495 2.475 2 5 C4.475 5.495 4.475 5.495 7 6 C7 6.33 7 6.66 7 7 C-7.19 6.67 -21.38 6.34 -36 6 C-36 5.67 -36 5.34 -36 5 C-24.12 5 -12.24 5 0 5 C0 3.35 0 1.7 0 0 Z " fill="#675A46" transform="translate(131,84)"/>
<path d="M0 0 C3.63 0 7.26 0 11 0 C11 1.32 11 2.64 11 4 C8.59454362 5.20272819 7.05003047 5.10071472 4.375 5.0625 C3.14910156 5.04896484 3.14910156 5.04896484 1.8984375 5.03515625 C0.95871094 5.01775391 0.95871094 5.01775391 0 5 C0 3.35 0 1.7 0 0 Z " fill="#FAFBE9" transform="translate(56,59)"/>
<path d="M0 0 C1.32 0 2.64 0 4 0 C3.566875 0.99 3.566875 0.99 3.125 2 C1.78660173 5.56906206 0.92448758 9.30204968 0 13 C-9.405 13.495 -9.405 13.495 -19 14 C-19 13.67 -19 13.34 -19 13 C-17.35 12.67 -15.7 12.34 -14 12 C-13.67 10.35 -13.34 8.7 -13 7 C-12.67 7 -12.34 7 -12 7 C-12 8.65 -12 10.3 -12 12 C-8.37 12 -4.74 12 -1 12 C-1.020625 10.205625 -1.04125 8.41125 -1.0625 6.5625 C-1.0838122 4.70833878 -1.07226502 2.85287502 -1 1 C-0.67 0.67 -0.34 0.34 0 0 Z " fill="#566357" transform="translate(68,45)"/>
<path d="M0 0 C0.33 0 0.66 0 1 0 C1.02703381 1.93742341 1.04641125 3.87495479 1.0625 5.8125 C1.07410156 6.89144531 1.08570312 7.97039062 1.09765625 9.08203125 C1 12 1 12 0 15 C-1.65 15 -3.3 15 -5 15 C-5 15.66 -5 16.32 -5 17 C-5.66 17 -6.32 17 -7 17 C-7 15.02 -7 13.04 -7 11 C-4.69 11 -2.38 11 0 11 C0 7.37 0 3.74 0 0 Z " fill="#EFEE3A" transform="translate(75,79)"/>
<path d="M0 0 C3.96 0 7.92 0 12 0 C12 0.33 12 0.66 12 1 C8.7 1.33 5.4 1.66 2 2 C2 2.66 2 3.32 2 4 C5.63 4.33 9.26 4.66 13 5 C13 5.33 13 5.66 13 6 C8.71 6 4.42 6 0 6 C0 4.02 0 2.04 0 0 Z " fill="#E3B337" transform="translate(49,103)"/>
<path d="M0 0 C1.98 0 3.96 0 6 0 C6 1.98 6 3.96 6 6 C4.02 6 2.04 6 0 6 C0 4.02 0 2.04 0 0 Z " fill="#4E4725" transform="translate(62,90)"/>
<path d="M0 0 C1.98 0 3.96 0 6 0 C6 1.98 6 3.96 6 6 C4.02 6 2.04 6 0 6 C0 4.02 0 2.04 0 0 Z " fill="#E9E941" transform="translate(62,84)"/>
<path d="M0 0 C1.98 0 3.96 0 6 0 C6 1.98 6 3.96 6 6 C4.02 6 2.04 6 0 6 C0 4.02 0 2.04 0 0 Z " fill="#E9E645" transform="translate(36,84)"/>
<path d="M0 0 C1.98 0 3.96 0 6 0 C6 1.98 6 3.96 6 6 C4.02 6 2.04 6 0 6 C0 4.02 0 2.04 0 0 Z " fill="#4A482E" transform="translate(62,71)"/>
<path d="M0 0 C0.33 0 0.66 0 1 0 C1 6.27 1 12.54 1 19 C2.98 19 4.96 19 7 19 C7 19.33 7 19.66 7 20 C5.02 20 3.04 20 1 20 C0.67 21.32 0.34 22.64 0 24 C-0.33 23.01 -0.66 22.02 -1 21 C-3.00016466 19.79117904 -3.00016466 19.79117904 -5 19 C-3.35 19 -1.7 19 0 19 C0 12.73 0 6.46 0 0 Z " fill="#586242" transform="translate(35,71)"/>
<path d="M0 0 C1.98 0 3.96 0 6 0 C6 1.98 6 3.96 6 6 C4.02 6 2.04 6 0 6 C0 4.02 0 2.04 0 0 Z " fill="#3C4A3C" transform="translate(113,58)"/>
<path d="M0 0 C2.64 0.33 5.28 0.66 8 1 C8 1.33 8 1.66 8 2 C5.69 2 3.38 2 1 2 C1 2.99 1 3.98 1 5 C1.33 4.34 1.66 3.68 2 3 C8.15234375 3.5859375 8.15234375 3.5859375 10 4 C10.33 4.66 10.66 5.32 11 6 C7.37 6 3.74 6 0 6 C0 4.02 0 2.04 0 0 Z " fill="#374034" transform="translate(37,65)"/>
<path d="M0 0 C1.66611905 -0.042721 3.33382885 -0.04063832 5 0 C6 1 6 1 6.0625 3.5625 C6.041875 4.366875 6.02125 5.17125 6 6 C4.02 6 2.04 6 0 6 C0 4.02 0 2.04 0 0 Z " fill="#464D47" transform="translate(106,52)"/>
<path d="M0 0 C1.2065625 0.0309375 1.2065625 0.0309375 2.4375 0.0625 C2.4375 2.0425 2.4375 4.0225 2.4375 6.0625 C0.7875 6.0625 -0.8625 6.0625 -2.5625 6.0625 C-2.94468767 4.40635343 -3.27645102 2.73792976 -3.5625 1.0625 C-2.5625 0.0625 -2.5625 0.0625 0 0 Z " fill="#DD6D57" transform="translate(90.5625,96.9375)"/>
<path d="M0 0 C0.33 0 0.66 0 1 0 C1 1.98 1 3.96 1 6 C2.98 6 4.96 6 7 6 C7 7.98 7 9.96 7 12 C5.35 12 3.7 12 2 12 C2.99 10.68 3.98 9.36 5 8 C3.35 8 1.7 8 0 8 C0 5.36 0 2.72 0 0 Z " fill="#E7E343" transform="translate(86,78)"/>
<path d="M0 0 C1.98 0 3.96 0 6 0 C6 1.65 6 3.3 6 5 C3.69 5 1.38 5 -1 5 C-0.67 3.35 -0.34 1.7 0 0 Z " fill="#3A4032" transform="translate(36,91)"/>
<path d="M0 0 C1.98 0 3.96 0 6 0 C6 1.65 6 3.3 6 5 C4.02 5 2.04 5 0 5 C0 3.35 0 1.7 0 0 Z " fill="#3E4438" transform="translate(132,91)"/>
<path d="M0 0 C0.66 0 1.32 0 2 0 C1.67 1.65 1.34 3.3 1 5 C-1.31 5 -3.62 5 -6 5 C-6 4.34 -6 3.68 -6 3 C-7.98 3 -9.96 3 -12 3 C-12 2.67 -12 2.34 -12 2 C-3.42857143 1.85714286 -3.42857143 1.85714286 0 3 C0 2.01 0 1.02 0 0 Z " fill="#3B4639" transform="translate(92,117)"/>
<path d="M0 0 C3.3 0 6.6 0 10 0 C10 0.33 10 0.66 10 1 C8.329375 1.2165625 8.329375 1.2165625 6.625 1.4375 C3.17857953 1.78372035 3.17857953 1.78372035 1 3 C-0.13350534 5.01669827 -0.13350534 5.01669827 -1 7 C-2.98 7 -4.96 7 -7 7 C-7 6.67 -7 6.34 -7 6 C-6.21625 5.938125 -5.4325 5.87625 -4.625 5.8125 C-3.75875 5.544375 -2.8925 5.27625 -2 5 C-0.62533375 2.52363988 -0.62533375 2.52363988 0 0 Z " fill="#F1F148" transform="translate(69,59)"/>
<path d="M0 0 C0 1.98 0 3.96 0 6 C1.98 6 3.96 6 6 6 C5.34 7.32 4.68 8.64 4 10 C4 9.34 4 8.68 4 8 C2.35 8.33 0.7 8.66 -1 9 C-1.12375 8.195625 -1.2475 7.39125 -1.375 6.5625 C-1.684375 5.2940625 -1.684375 5.2940625 -2 4 C-2.66 3.67 -3.32 3.34 -4 3 C-4 2.34 -4 1.68 -4 1 C-1 0 -1 0 0 0 Z " fill="#4A4C45" transform="translate(55,59)"/>
<path d="M0 0 C1.65 0 3.3 0 5 0 C5 1.65 5 3.3 5 5 C3.35 5 1.7 5 0 5 C0 3.35 0 1.7 0 0 Z " fill="#423B2D" transform="translate(81,97)"/>
<path d="M0 0 C1.65 0 3.3 0 5 0 C5 1.65 5 3.3 5 5 C3.35 5 1.7 5 0 5 C0 3.35 0 1.7 0 0 Z " fill="#4A392F" transform="translate(88,91)"/>
<path d="M0 0 C1.65 0 3.3 0 5 0 C5 1.65 5 3.3 5 5 C3.35 5 1.7 5 0 5 C0 3.35 0 1.7 0 0 Z " fill="#393A34" transform="translate(88,78)"/>
<path d="M0 0 C1.65 0 3.3 0 5 0 C4.67 0.66 4.34 1.32 4 2 C3.34 1.67 2.68 1.34 2 1 C2.66 1.66 3.32 2.32 4 3 C4.625 5.125 4.625 5.125 5 7 C4.67 6.34 4.34 5.68 4 5 C3.34 5 2.68 5 2 5 C2 5.66 2 6.32 2 7 C1.34 7 0.68 7 0 7 C0 4.69 0 2.38 0 0 Z " fill="#374036" transform="translate(49,59)"/>
<path d="M0 0 C2.475 0.495 2.475 0.495 5 1 C5 2.32 5 3.64 5 5 C3.35 5 1.7 5 0 5 C0 3.35 0 1.7 0 0 Z " fill="#4B3A32" transform="translate(88,103)"/>
<path d="M0 0 C1.65 0 3.3 0 5 0 C5.33 1.98 5.66 3.96 6 6 C4.35 6 2.7 6 1 6 C1.20625 5.38125 1.4125 4.7625 1.625 4.125 C1.74875 3.42375 1.8725 2.7225 2 2 C1.34 1.34 0.68 0.68 0 0 Z " fill="#F6BB22" transform="translate(81,104)"/>
<path d="M0 0 C1.32 0 2.64 0 4 0 C2.7508258 3.45925163 1.32472205 6.14693203 -1 9 C-1.09765625 2.84765625 -1.09765625 2.84765625 -1 1 C-0.67 0.67 -0.34 0.34 0 0 Z " fill="#617460" transform="translate(68,45)"/>
<path d="M0 0 C0.66 0 1.32 0 2 0 C1.125 4.875 1.125 4.875 0 6 C-2.67058851 6.14115161 -5.32432238 6.04247107 -8 6 C-8 5.67 -8 5.34 -8 5 C-5.69 5 -3.38 5 -1 5 C-0.67 3.35 -0.34 1.7 0 0 Z " fill="#3A533C" transform="translate(124,110)"/>
<path d="M0 0 C0.66 0 1.32 0 2 0 C2 0.99 2 1.98 2 3 C3.65 3 5.3 3 7 3 C6.67 3.99 6.34 4.98 6 6 C4.68 6 3.36 6 2 6 C0 3 0 3 0 0 Z " fill="#F7EF21" transform="translate(84,83)"/>
<path d="M0 0 C0.66 0.99 1.32 1.98 2 3 C1 4 1 4 -1.72265625 4.09765625 C-3.37587891 4.08025391 -3.37587891 4.08025391 -5.0625 4.0625 C-6.16722656 4.05347656 -7.27195312 4.04445313 -8.41015625 4.03515625 C-9.69212891 4.01775391 -9.69212891 4.01775391 -11 4 C-7.91111478 1.94074319 -7.29064073 1.7609626 -3.8125 1.875 C-1.9253125 1.936875 -1.9253125 1.936875 0 2 C0 1.34 0 0.68 0 0 Z " fill="#3E3E3D" transform="translate(80,47)"/>
<path d="M0 0 C0 1.65 0 3.3 0 5 C-2.97 4.505 -2.97 4.505 -6 4 C-5.67 3.01 -5.34 2.02 -5 1 C-3.28960011 0.41205004 -1.81522119 0 0 0 Z " fill="#F1F1E3" transform="translate(68,78)"/>
<path d="M0 0 C0.33 0.66 0.66 1.32 1 2 C1.66 2 2.32 2 3 2 C3 2.99 3 3.98 3 5 C3.99 5.33 4.98 5.66 6 6 C4.02 6 2.04 6 0 6 C0 4.02 0 2.04 0 0 Z " fill="#545455" transform="translate(87,52)"/>
<path d="M0 0 C1.65 0 3.3 0 5 0 C5 0.99 5 1.98 5 3 C3.02 3 1.04 3 -1 3 C-0.67 2.01 -0.34 1.02 0 0 Z " fill="#404044" transform="translate(62,54)"/>
</svg>
